<?xml version="1.0" encoding="UTF-8" standalone="no"?>
<!DOCTYPE svg PUBLIC "-//W3C//DTD SVG 1.1//EN" "http://www.w3.org/Graphics/SVG/1.1/DTD/svg11.dtd">
<svg width="100%" height="100%" viewBox="0 0 400 400" version="1.1" xmlns="http://www.w3.org/2000/svg" xmlns:xlink="http://www.w3.org/1999/xlink" xml:space="preserve" xmlns:serif="http://www.serif.com/" style="fill-rule:evenodd;clip-rule:evenodd;stroke-linecap:round;stroke-linejoin:round;stroke-miterlimit:20;">
    <path d="M193.996,370C156.136,370 93.732,317.812 68.66,295.376C63.156,290.46 59.996,283.396 59.996,276L39.996,276C25.66,276 13.996,264.336 13.996,250L13.996,178C13.996,163.664 25.66,152 39.996,152L54.04,152L34.26,128.92C29.02,122.816 26.92,114.776 28.508,106.876C30.116,98.94 35.168,92.344 42.372,88.744C60.652,79.604 154.084,34 197.996,34C239.4,34 275.464,59.792 287.232,69.188C361.368,98.356 394.816,185.172 398.432,195.108C401.032,202.276 400.372,210.176 396.632,216.792C391.008,226.752 341.104,311.716 268.292,327.904C254.696,344.1 227.672,370 193.996,370Z" style="fill-opacity:0.35;fill-rule:nonzero;"/>
    <path d="M185.996,362C148.136,362 85.732,309.812 60.66,287.376C55.156,282.46 51.996,275.396 51.996,268L31.996,268C17.66,268 5.996,256.336 5.996,242L5.996,170C5.996,155.664 17.66,144 31.996,144L46.04,144L26.26,120.92C21.02,114.816 18.92,106.776 20.508,98.876C22.116,90.94 27.168,84.344 34.372,80.744C52.652,71.604 146.084,26 189.996,26C231.4,26 267.464,51.792 279.232,61.188C353.368,90.356 386.816,177.172 390.432,187.108C393.032,194.276 392.372,202.176 388.632,208.792C383.008,218.752 333.104,303.716 260.292,319.904C246.696,336.1 219.672,362 185.996,362Z" style="fill:rgb(242,242,242);fill-rule:nonzero;"/>
    <path d="M113.996,168L93.996,160L45.996,104C45.996,104 149.996,52 189.996,52C229.996,52 265.996,84 265.996,84C333.996,108 365.996,196 365.996,196C365.996,196 313.996,288 245.996,296C245.996,296 217.996,336 185.996,336C153.996,336 77.996,268 77.996,268L113.996,236L93.996,220L69.996,240L33.996,240L33.996,168L65.996,168L93.996,184L113.996,168Z" style="fill:rgb(112,191,255);fill-rule:nonzero;"/>
    <path d="M119.952,169.776L93.996,160L45.996,104C45.996,104 149.996,52 189.996,52C229.996,52 264.256,89.684 264.256,89.684C264.256,89.684 222.692,77.752 119.952,169.776Z" style="fill:rgb(39,133,189);fill-rule:nonzero;"/>
    <path d="M117.052,230.652C179.612,288.9 246.624,289.976 246.624,289.976C246.624,289.976 217.996,336 185.996,336C154.752,336 81.6,271.208 78.164,268.148L117.052,230.652Z" style="fill:rgb(39,133,189);fill-rule:nonzero;"/>
    <g opacity="0.35">
        <path d="M184.992,335.94C180.972,335.776 176.324,334.624 171.248,332.716L218.272,285.692C223.648,286.968 228.416,287.864 232.44,288.496L184.992,335.94Z" style="fill:rgb(64,57,110);fill-rule:nonzero;"/>
        <path d="M192.764,277.864C197.156,279.512 201.392,280.96 205.408,282.192L159.94,327.656C156.392,325.844 152.74,323.8 149.036,321.592L192.764,277.864Z" style="fill:rgb(64,57,110);fill-rule:nonzero;"/>
        <path d="M129.316,241.312C132.52,243.912 135.72,246.356 138.908,248.688L100.588,287.008C97.176,284.264 94.04,281.692 91.256,279.372L129.316,241.312Z" style="fill:rgb(64,57,110);fill-rule:nonzero;"/>
        <path d="M169.648,267.648C173.556,269.648 177.392,271.46 181.144,273.12L138.976,315.288C135.596,313.072 132.224,310.76 128.884,308.412L169.648,267.648Z" style="fill:rgb(64,57,110);fill-rule:nonzero;"/>
        <path d="M148.584,255.38C152.108,257.688 155.608,259.856 159.068,261.864L119.388,301.544C116.072,299.084 112.832,296.628 109.736,294.228L148.584,255.38Z" style="fill:rgb(64,57,110);fill-rule:nonzero;"/>
    </g>
    <path d="M92.176,195.664L92.38,214.472L65.996,236L36.828,236L37.996,172L65.996,172L92.176,195.664Z" style="fill:rgb(43,89,161);fill-rule:nonzero;"/>
    <g opacity="0.35">
        <path d="M167.512,55.34C172.612,54.1 177.4,53.152 181.732,52.592L226.104,96.964C222.488,98.424 218.56,100.18 214.384,102.212L167.512,55.34Z" style="fill:rgb(64,57,110);fill-rule:nonzero;"/>
        <path d="M141.868,63.032C146.228,61.536 150.512,60.14 154.684,58.88L203.612,107.808C200.184,109.7 196.62,111.752 192.872,114.036L141.868,63.032Z" style="fill:rgb(64,57,110);fill-rule:nonzero;"/>
        <path d="M198.028,52.524C206.428,53.548 214.44,56.092 221.848,59.376L252.12,89.648C248.392,90.124 243.78,91.044 238.208,92.704L198.028,52.524Z" style="fill:rgb(64,57,110);fill-rule:nonzero;"/>
        <path d="M117.568,72.06C121.64,70.448 125.736,68.868 129.824,67.348L182.876,120.4C179.612,122.548 176.256,124.824 172.78,127.272L117.568,72.06Z" style="fill:rgb(64,57,110);fill-rule:nonzero;"/>
        <path d="M94.008,81.832C97.88,80.16 101.864,78.472 105.928,76.784L163.28,134.136C160.16,136.456 156.94,138.924 153.66,141.484L94.008,81.832Z" style="fill:rgb(64,57,110);fill-rule:nonzero;"/>
        <path d="M70.956,92.116C74.576,90.448 78.5,88.668 82.632,86.824L144.556,148.748C141.532,151.212 138.44,153.78 135.284,156.448L70.956,92.116Z" style="fill:rgb(64,57,110);fill-rule:nonzero;"/>
    </g>
    <path d="M93.996,160L45.996,104C45.996,104 119.988,67.004 167.156,55.424L183.256,58.64C114.996,65.416 119.952,169.776 119.952,169.776L93.996,160Z" style="fill:rgb(43,89,161);fill-rule:nonzero;"/>
    <path d="M365.996,196C365.996,196 353.4,218.256 332.528,241.824C301.016,240.016 275.996,213.964 275.996,182C275.996,153.656 295.672,129.964 322.096,123.684C351.744,156.876 365.996,196 365.996,196Z" style="fill:rgb(217,238,255);fill-rule:nonzero;"/>
    <path d="M113.996,168L93.996,160L45.996,104C45.996,104 149.996,52 189.996,52C229.996,52 265.996,84 265.996,84C333.996,108 365.996,196 365.996,196C365.996,196 313.996,288 245.996,296C245.996,296 217.996,336 185.996,336C153.996,336 77.996,268 77.996,268L113.996,236L93.996,220L67.996,242L31.996,242L31.996,170L67.996,170L91.996,190L113.996,168Z" style="fill:none;fill-rule:nonzero;stroke:rgb(64,57,110);stroke-width:12px;"/>
    <circle cx="319.996" cy="178" r="10" style="fill:rgb(64,57,110);"/>
    <path d="M315.852,125.464C270.016,133.5 254.82,194.012 288.088,225.376C298.144,235.284 311.86,241.18 325.24,241.036C312.824,236.2 302.5,228.636 295.028,219.088C270.78,188.548 282.112,144.2 315.852,125.464Z" style="fill:rgb(39,133,189);fill-rule:nonzero;"/>
    <g opacity="0.35">
        <path d="M37.996,214.156L92.376,214.156L92.38,214.472L75.888,226.156L37.996,226.156L37.996,214.156Z" style="fill:rgb(64,57,110);fill-rule:nonzero;"/>
        <path d="M37.996,196.036L37.996,184.036L79.312,184.036L92.176,195.664L92.18,196.036L37.996,196.036Z" style="fill:rgb(64,57,110);fill-rule:nonzero;"/>
    </g>
    <path d="M261.996,216C261.996,216 257.436,241.14 229.996,248C213.996,252 198.996,237.08 198.996,237.08L261.996,216Z" style="fill:rgb(39,133,189);fill-rule:nonzero;"/>
</svg>
